<?xml version="1.0" standalone="no"?>
<!DOCTYPE svg PUBLIC "-//W3C//DTD SVG 20010904//EN"
 "http://www.w3.org/TR/2001/REC-SVG-20010904/DTD/svg10.dtd">
<svg version="1.0" xmlns="http://www.w3.org/2000/svg"
 width="600.000000pt" height="300.000000pt" viewBox="0 0 600.000000 300.000000"
 preserveAspectRatio="xMidYMid meet">

<g transform="translate(0.000000,300.000000) scale(0.100000,-0.100000)"
fill="#000000" stroke="none">
<path d="M2405 2529 c-208 -30 -382 -187 -430 -390 -8 -35 -15 -79 -15 -98 l0
-33 518 7 c284 4 519 9 521 11 10 9 -29 166 -55 220 -46 93 -142 188 -238 234
-73 35 -102 42 -211 54 -16 2 -57 0 -90 -5z"/>
<path d="M3520 2022 c0 -285 2 -521 5 -524 3 -3 38 1 78 9 346 64 532 427 381
741 -75 156 -230 264 -411 286 l-53 7 0 -519z"/>
<path d="M2986 1891 c-16 -103 -130 -257 -234 -319 -55 -31 -164 -72 -200 -73
-18 -1 -11 -4 18 -9 187 -33 348 -172 404 -351 10 -30 20 -61 23 -69 3 -8 11
9 19 39 47 178 206 335 379 374 l58 13 -64 18 c-94 26 -170 70 -239 139 -62
62 -124 167 -136 233 -9 48 -20 50 -28 5z"/>
<path d="M2380 1484 c-348 -75 -523 -446 -357 -758 78 -147 265 -266 419 -266
l38 0 0 520 c0 489 -1 520 -17 519 -10 0 -47 -7 -83 -15z"/>
<path d="M3005 924 c33 -263 257 -463 520 -464 188 0 379 121 460 292 33 69
55 152 55 204 l0 24 -521 0 -521 0 7 -56z"/>
</g>
</svg>
